# xmcd CD database file
#
# Track frame offsets:
#	150
#	11707
#	23659
#	36584
#	57870
#	70659
#	87160
#	104022
#	117060
#	129399
#	140985
#	151350
#	164931
#	179224
#
# Disc length: 2595 seconds
#
# Revision: 0
# Processed by: cddbd v1.5.2PL0 Copyright (c) Steve Scherf et al.
# Submitted via: CDex 1.40Beta9
#
DISCID=ce0a210e
DTITLE=Verschiedene - Country CD1
DYEAR=1900
DGENRE=Country
TTITLE0=Johnny Cash - Ring of fire
TTITLE1=Lynn Anderson - Rose Garden
TTITLE2=Charlie Rich - The most beautiful girl
TTITLE3=Olivia Newton John - Banks of the Ohio
TTITLE4=Conway Twitty - I can't stop loving you
TTITLE5=Gordon Lightfoot - Diddley dee, diddley dee
TTITLE6=Linda Ronstadt - I'm gonna love you
TTITLE7=Kenny Rogers - Ruby, don't take your love to town
TTITLE8=Bobby Bare - Green green grass of home
TTITLE9=Jimmie Rodgers - A good woman likes to drint with the boys
TTITLE10=Ferlin Husky - Wings of a dove
TTITLE11=Hank Snow - The blue velvet band
TTITLE12=Freddie Fender - Wasted days and wasted nights
TTITLE13=Tom Paxton - I can't help but wonder
EXTD=ID3G: 2
EXTT0=
EXTT1=
EXTT2=
EXTT3=
EXTT4=
EXTT5=
EXTT6=
EXTT7=
EXTT8=
EXTT9=
EXTT10=
EXTT11=
EXTT12=
EXTT13=
PLAYORDER=
